<svg width="2268.2287109374997px" height="325.0224914550781px" xmlns="http://www.w3.org/2000/svg" viewBox="-884.1143554687499 -87.51124572753906 2268.2287109374997 325.0224914550781" style="background: rgba(0, 0, 0, 0);" preserveAspectRatio="xMidYMid"><defs><filter id="editing-hole" x="-100%" y="-100%" width="300%" height="300%"><feFlood flood-color="#fed136" result="black"></feFlood><feMorphology operator="dilate" radius="2" in="SourceGraphic" result="erode"></feMorphology><feGaussianBlur in="erode" stdDeviation="4" result="blur"></feGaussianBlur><feOffset in="blur" dx="2" dy="2" result="offset"></feOffset><feComposite operator="atop" in="offset" in2="black" result="merge"></feComposite><feComposite operator="in" in="merge" in2="SourceGraphic" result="inner-shadow"></feComposite></filter></defs><g filter="url(#editing-hole)"><g transform="translate(-565.4221459627151, 145.58999633789062)"><path d="M95.75-30.95L88.33-50.50L40.00-50.50L40.00-50.50Q36.92-43.08 34.75-37.38L34.75-37.38L34.75-37.38Q32.58-31.68 31.22-27.51L31.22-27.51L31.22-27.51Q29.86-23.35 29.32-20.45L29.32-20.45L29.32-20.45Q28.78-17.56 28.78-15.75L28.78-15.75L28.78-15.75Q28.78-10.68 32.04-8.78L32.04-8.78L32.04-8.78Q35.30-6.88 42.90-6.88L42.90-6.88L42.90 0L-1.09 0L-1.09-6.88L-1.09-6.88Q3.08-7.42 6.06-8.33L6.06-8.33L6.06-8.33Q9.05-9.23 11.31-10.86L11.31-10.86L11.31-10.86Q13.57-12.49 15.29-15.11L15.29-15.11L15.29-15.11Q17.01-17.74 18.64-21.54L18.64-21.54L65.70-139.37L73.49-139.37L114.57-37.29L114.57-37.29Q118.74-27.15 121.81-21.09L121.81-21.09L121.81-21.09Q124.89-15.02 127.79-11.95L127.79-11.95L127.79-11.95Q130.68-8.87 134.03-7.96L134.03-7.96L134.03-7.96Q137.38-7.06 142.09-7.06L142.09-7.06L142.09 0L83.08 0L83.08-7.06L83.08-7.06Q92.67-7.06 96.29-8.87L96.29-8.87L96.29-8.87Q99.91-10.68 99.91-14.84L99.91-14.84L99.91-14.84Q99.91-16.65 99.73-18.19L99.73-18.19L99.73-18.19Q99.55-19.73 99.10-21.54L99.10-21.54L99.10-21.54Q98.64-23.35 97.83-25.61L97.83-25.61L97.83-25.61Q97.02-27.87 95.75-30.95L95.75-30.95ZM64.80-112.94L43.62-59.55L84.89-59.55L64.80-112.94ZM266.98-139.37L268.78-104.80L261.36-104.80L261.36-104.80Q260.82-112.58 258.83-117.83L258.83-117.83L258.83-117.83Q256.84-123.08 253.13-126.07L253.13-126.07L253.13-126.07Q249.42-129.05 243.81-130.32L243.81-130.32L243.81-130.32Q238.20-131.59 230.41-131.59L230.41-131.59L230.41-131.59Q223.72-131.59 219.64-131.32L219.64-131.32L219.64-131.32Q215.57-131.04 213.40-130.32L213.40-130.32L213.40-130.32Q211.23-129.60 210.59-128.60L210.59-128.60L210.59-128.60Q209.96-127.60 209.96-125.98L209.96-125.98L209.96-29.14L209.96-29.14Q209.96-23.35 210.77-19.19L210.77-19.19L210.77-19.19Q211.59-15.02 214.03-12.40L214.03-12.40L214.03-12.40Q216.48-9.77 221.09-8.42L221.09-8.42L221.09-8.42Q225.71-7.06 233.31-6.88L233.31-6.88L233.31 0L164.89 0L164.89-6.88L164.89-6.88Q172.49-7.06 177.20-8.42L177.20-8.42L177.20-8.42Q181.91-9.77 184.35-12.40L184.35-12.40L184.35-12.40Q186.79-15.02 187.61-19.19L187.61-19.19L187.61-19.19Q188.42-23.35 188.42-29.14L188.42-29.14L188.42-125.98L188.42-125.98Q188.42-127.60 187.79-128.60L187.79-128.60L187.79-128.60Q187.15-129.60 185.25-130.32L185.25-130.32L185.25-130.32Q183.35-131.04 179.91-131.32L179.91-131.32L179.91-131.32Q176.47-131.59 170.68-131.59L170.68-131.59L170.68-131.59Q163.62-131.59 157.56-131.04L157.56-131.04L157.56-131.04Q151.50-130.50 147.06-127.88L147.06-127.88L147.06-127.88Q142.63-125.25 139.91-119.82L139.91-119.82L139.91-119.82Q137.20-114.39 137.02-104.80L137.02-104.80L130.32-104.80L130.32-139.37L266.98-139.37ZM411.23-110.59L411.23-28.78L411.23-28.78Q411.23-21.90 411.96-17.65L411.96-17.65L411.96-17.65Q412.68-13.39 414.76-11.13L414.76-11.13L414.76-11.13Q416.84-8.87 420.73-7.96L420.73-7.96L420.73-7.96Q424.63-7.06 430.96-6.88L430.96-6.88L430.96 0L372.32 0L372.32-6.88L372.32-6.88Q378.65-7.06 382.54-7.96L382.54-7.96L382.54-7.96Q386.43-8.87 388.61-11.04L388.61-11.04L388.61-11.04Q390.78-13.21 391.50-17.20L391.50-17.20L391.50-17.20Q392.23-21.18 392.23-27.51L392.23-27.51L392.23-66.79L318.92-66.79L318.92-28.78L318.92-28.78Q318.92-21.90 319.65-17.65L319.65-17.65L319.65-17.65Q320.37-13.39 322.45-11.13L322.45-11.13L322.45-11.13Q324.53-8.87 328.42-7.96L328.42-7.96L328.42-7.96Q332.32-7.06 338.65-6.88L338.65-6.88L338.65 0L280.01 0L280.01-6.88L280.01-6.88Q286.34-7.06 290.23-7.96L290.23-7.96L290.23-7.96Q294.12-8.87 296.30-11.04L296.30-11.04L296.30-11.04Q298.47-13.21 299.19-17.20L299.19-17.20L299.19-17.20Q299.92-21.18 299.92-27.51L299.92-27.51L299.92-111.86L299.92-111.86Q299.92-118.19 299.28-122.08L299.28-122.08L299.28-122.08Q298.65-125.98 296.75-128.24L296.75-128.24L296.75-128.24Q294.85-130.50 291.23-131.32L291.23-131.32L291.23-131.32Q287.61-132.13 281.82-132.49L281.82-132.49L281.82-139.37L336.84-139.37L336.84-132.49L336.84-132.49Q331.05-132.31 327.52-131.41L327.52-131.41L327.52-131.41Q323.99-130.50 322.09-128.15L322.09-128.15L322.09-128.15Q320.19-125.80 319.56-121.63L319.56-121.63L319.56-121.63Q318.92-117.47 318.92-110.59L318.92-110.59L318.92-75.84L392.23-75.84L392.23-111.86L392.23-111.86Q392.23-118.19 391.59-122.08L391.59-122.08L391.59-122.08Q390.96-125.98 389.06-128.24L389.06-128.24L389.06-128.24Q387.16-130.50 383.54-131.32L383.54-131.32L383.54-131.32Q379.92-132.13 374.13-132.49L374.13-132.49L374.13-139.37L429.15-139.37L429.15-132.49L429.15-132.49Q423.36-132.31 419.83-131.41L419.83-131.41L419.83-131.41Q416.30-130.50 414.40-128.15L414.40-128.15L414.40-128.15Q412.50-125.80 411.87-121.63L411.87-121.63L411.87-121.63Q411.23-117.47 411.23-110.59L411.23-110.59ZM535.04-30.95L527.61-50.50L479.29-50.50L479.29-50.50Q476.21-43.08 474.04-37.38L474.04-37.38L474.04-37.38Q471.87-31.68 470.51-27.51L470.51-27.51L470.51-27.51Q469.15-23.35 468.61-20.45L468.61-20.45L468.61-20.45Q468.07-17.56 468.07-15.75L468.07-15.75L468.07-15.75Q468.07-10.68 471.32-8.78L471.32-8.78L471.32-8.78Q474.58-6.88 482.18-6.88L482.18-6.88L482.18 0L438.20 0L438.20-6.88L438.20-6.88Q442.36-7.42 445.35-8.33L445.35-8.33L445.35-8.33Q448.34-9.23 450.60-10.86L450.60-10.86L450.60-10.86Q452.86-12.49 454.58-15.11L454.58-15.11L454.58-15.11Q456.30-17.74 457.93-21.54L457.93-21.54L504.99-139.37L512.77-139.37L553.86-37.29L553.86-37.29Q558.02-27.15 561.10-21.09L561.10-21.09L561.10-21.09Q564.18-15.02 567.07-11.95L567.07-11.95L567.07-11.95Q569.97-8.87 573.32-7.96L573.32-7.96L573.32-7.96Q576.67-7.06 581.37-7.06L581.37-7.06L581.37 0L522.37 0L522.37-7.06L522.37-7.06Q531.96-7.06 535.58-8.87L535.58-8.87L535.58-8.87Q539.20-10.68 539.20-14.84L539.20-14.84L539.20-14.84Q539.20-16.65 539.02-18.19L539.02-18.19L539.02-18.19Q538.84-19.73 538.38-21.54L538.38-21.54L538.38-21.54Q537.93-23.35 537.12-25.61L537.12-25.61L537.12-25.61Q536.30-27.87 535.04-30.95L535.04-30.95ZM504.08-112.94L482.91-59.55L524.18-59.55L504.08-112.94ZM698.12-104.44L698.12-104.44L698.12-104.44Q698.12-89.96 689.43-80.36L689.43-80.36L689.43-80.36Q680.74-70.77 661.74-67.51L661.74-67.51L701.74-19.37L701.74-19.37Q706.62-13.39 712.51-10.77L712.51-10.77L712.51-10.77Q718.39-8.14 726.53-6.88L726.53-6.88L726.53 0L691.60 0L647.26-56.83L647.26-56.83Q644.90-59.91 642.82-61.72L642.82-61.72L642.82-61.72Q640.74-63.53 638.48-64.53L638.48-64.53L638.48-64.53Q636.21-65.52 633.23-65.79L633.23-65.79L633.23-65.79Q630.24-66.06 626.08-66.06L626.08-66.06L626.08-28.42L626.08-28.42Q626.08-21.72 626.89-17.47L626.89-17.47L626.89-17.47Q627.71-13.21 630.33-10.86L630.33-10.86L630.33-10.86Q632.96-8.51 637.93-7.69L637.93-7.69L637.93-7.69Q642.91-6.88 651.06-6.88L651.06-6.88L651.06 0L587.16 0L587.16-6.88L587.16-6.88Q593.50-7.06 597.39-7.96L597.39-7.96L597.39-7.96Q601.28-8.87 603.45-11.04L603.45-11.04L603.45-11.04Q605.63-13.21 606.35-17.20L606.35-17.20L606.35-17.20Q607.07-21.18 607.07-27.51L607.07-27.51L607.07-111.86L607.07-111.86Q607.07-118.19 606.44-122.08L606.44-122.08L606.44-122.08Q605.81-125.98 603.91-128.24L603.91-128.24L603.91-128.24Q602.01-130.50 598.39-131.32L598.39-131.32L598.39-131.32Q594.77-132.13 588.97-132.49L588.97-132.49L588.97-139.37L645.81-139.37L645.81-139.37Q670.79-139.37 684.45-130.14L684.45-130.14L684.45-130.14Q698.12-120.91 698.12-104.44ZM626.08-127.79L626.08-75.11L638.93-75.11L638.93-75.11Q657.03-75.11 665.81-81.72L665.81-81.72L665.81-81.72Q674.59-88.33 674.59-103.53L674.59-103.53L674.59-103.53Q674.59-118.19 667.62-124.53L667.62-124.53L667.62-124.53Q660.65-130.86 645.81-130.86L645.81-130.86L629.16-130.86L629.16-130.86Q626.08-130.86 626.08-127.79L626.08-127.79ZM757.67-109.14L789.88-27.69L821.74-106.25L821.74-106.25Q824.45-112.94 825.54-116.74L825.54-116.74L825.54-116.74Q826.63-120.55 826.63-123.62L826.63-123.62L826.63-123.62Q826.63-128.51 823.64-130.50L823.64-130.50L823.64-130.50Q820.65-132.49 812.51-132.49L812.51-132.49L812.51-139.37L856.49-139.37L856.49-132.49L856.49-132.49Q852.33-131.95 849.34-131.04L849.34-131.04L849.34-131.04Q846.36-130.14 844.09-128.51L844.09-128.51L844.09-128.51Q841.83-126.88 840.11-124.26L840.11-124.26L840.11-124.26Q838.39-121.63 836.76-117.83L836.76-117.83L787.71 1.81L781.38 1.81L734.68-110.95L734.68-110.95Q732.33-116.38 730.06-120.36L730.06-120.36L730.06-120.36Q727.80-124.35 725.09-126.88L725.09-126.88L725.09-126.88Q722.37-129.41 718.93-130.68L718.93-130.68L718.93-130.68Q715.49-131.95 710.79-132.31L710.79-132.31L710.79-139.37L769.79-139.37L769.79-132.31L769.79-132.31Q764.73-132.31 761.56-131.86L761.56-131.86L761.56-131.86Q758.39-131.41 756.58-130.41L756.58-130.41L756.58-130.41Q754.77-129.41 754.05-127.97L754.05-127.97L754.05-127.97Q753.32-126.52 753.32-124.71L753.32-124.71L753.32-124.71Q753.32-122.17 754.23-118.83L754.23-118.83L754.23-118.83Q755.13-115.48 757.67-109.14L757.67-109.14ZM936.86-30.95L929.43-50.50L881.11-50.50L881.11-50.50Q878.03-43.08 875.86-37.38L875.86-37.38L875.86-37.38Q873.69-31.68 872.33-27.51L872.33-27.51L872.33-27.51Q870.97-23.35 870.43-20.45L870.43-20.45L870.43-20.45Q869.89-17.56 869.89-15.75L869.89-15.75L869.89-15.75Q869.89-10.68 873.14-8.78L873.14-8.78L873.14-8.78Q876.40-6.88 884.00-6.88L884.00-6.88L884.00 0L840.02 0L840.02-6.88L840.02-6.88Q844.18-7.42 847.17-8.33L847.17-8.33L847.17-8.33Q850.16-9.23 852.42-10.86L852.42-10.86L852.42-10.86Q854.68-12.49 856.40-15.11L856.40-15.11L856.40-15.11Q858.12-17.74 859.75-21.54L859.75-21.54L906.81-139.37L914.59-139.37L955.68-37.29L955.68-37.29Q959.84-27.15 962.92-21.09L962.92-21.09L962.92-21.09Q966.00-15.02 968.89-11.95L968.89-11.95L968.89-11.95Q971.79-8.87 975.14-7.96L975.14-7.96L975.14-7.96Q978.49-7.06 983.19-7.06L983.19-7.06L983.19 0L924.19 0L924.19-7.06L924.19-7.06Q933.78-7.06 937.40-8.87L937.40-8.87L937.40-8.87Q941.02-10.68 941.02-14.84L941.02-14.84L941.02-14.84Q941.02-16.65 940.84-18.19L940.84-18.19L940.84-18.19Q940.66-19.73 940.20-21.54L940.20-21.54L940.20-21.54Q939.75-23.35 938.94-25.61L938.94-25.61L938.94-25.61Q938.12-27.87 936.86-30.95L936.86-30.95ZM905.90-112.94L884.73-59.55L926.00-59.55L905.90-112.94ZM1160.21-139.37L1162.02-104.80L1154.60-104.80L1154.60-104.80Q1154.06-112.58 1152.06-117.83L1152.06-117.83L1152.06-117.83Q1150.07-123.08 1146.36-126.07L1146.36-126.07L1146.36-126.07Q1142.65-129.05 1137.04-130.32L1137.04-130.32L1137.04-130.32Q1131.43-131.59 1123.65-131.59L1123.65-131.59L1123.65-131.59Q1116.95-131.59 1112.88-131.32L1112.88-131.32L1112.88-131.32Q1108.81-131.04 1106.63-130.32L1106.63-130.32L1106.63-130.32Q1104.46-129.60 1103.83-128.60L1103.83-128.60L1103.83-128.60Q1103.19-127.60 1103.19-125.98L1103.19-125.98L1103.19-29.14L1103.19-29.14Q1103.19-23.35 1104.01-19.19L1104.01-19.19L1104.01-19.19Q1104.82-15.02 1107.27-12.40L1107.27-12.40L1107.27-12.40Q1109.71-9.77 1114.33-8.42L1114.33-8.42L1114.33-8.42Q1118.94-7.06 1126.54-6.88L1126.54-6.88L1126.54 0L1058.13 0L1058.13-6.88L1058.13-6.88Q1065.73-7.06 1070.43-8.42L1070.43-8.42L1070.43-8.42Q1075.14-9.77 1077.58-12.40L1077.58-12.40L1077.58-12.40Q1080.03-15.02 1080.84-19.19L1080.84-19.19L1080.84-19.19Q1081.66-23.35 1081.66-29.14L1081.66-29.14L1081.66-125.98L1081.66-125.98Q1081.66-127.60 1081.02-128.60L1081.02-128.60L1081.02-128.60Q1080.39-129.60 1078.49-130.32L1078.49-130.32L1078.49-130.32Q1076.59-131.04 1073.15-131.32L1073.15-131.32L1073.15-131.32Q1069.71-131.59 1063.92-131.59L1063.92-131.59L1063.92-131.59Q1056.86-131.59 1050.80-131.04L1050.80-131.04L1050.80-131.04Q1044.73-130.50 1040.30-127.88L1040.30-127.88L1040.30-127.88Q1035.86-125.25 1033.15-119.82L1033.15-119.82L1033.15-119.82Q1030.43-114.39 1030.25-104.80L1030.25-104.80L1023.55-104.80L1023.55-139.37L1160.21-139.37ZM1212.16-105.16L1212.16-34.21L1212.16-34.21Q1212.16-25.16 1212.88-19.91L1212.88-19.91L1212.88-19.91Q1213.60-14.66 1215.69-11.76L1215.69-11.76L1215.69-11.76Q1217.77-8.87 1221.66-7.96L1221.66-7.96L1221.66-7.96Q1225.55-7.06 1231.89-6.88L1231.89-6.88L1231.89 0L1173.24 0L1173.24-6.88L1173.24-6.88Q1179.58-7.06 1183.47-8.05L1183.47-8.05L1183.47-8.05Q1187.36-9.05 1189.53-11.76L1189.53-11.76L1189.53-11.76Q1191.70-14.48 1192.43-19.46L1192.43-19.46L1192.43-19.46Q1193.15-24.43 1193.15-32.94L1193.15-32.94L1193.15-106.43L1193.15-106.43Q1193.15-114.03 1192.52-119.01L1192.52-119.01L1192.52-119.01Q1191.88-123.98 1189.98-126.88L1189.98-126.88L1189.98-126.88Q1188.08-129.78 1184.46-130.95L1184.46-130.95L1184.46-130.95Q1180.84-132.13 1175.05-132.49L1175.05-132.49L1175.05-139.37L1230.08-139.37L1230.08-132.49L1230.08-132.49Q1224.28-132.31 1220.75-131.04L1220.75-131.04L1220.75-131.04Q1217.22-129.78 1215.32-126.79L1215.32-126.79L1215.32-126.79Q1213.42-123.80 1212.79-118.55L1212.79-118.55L1212.79-118.55Q1212.16-113.31 1212.16-105.16L1212.16-105.16ZM1359.31-104.44L1359.31-104.44L1359.31-104.44Q1359.31-94.84 1356.23-87.24L1356.23-87.24L1356.23-87.24Q1353.16-79.64 1346.55-74.39L1346.55-74.39L1346.55-74.39Q1339.94-69.14 1329.35-66.25L1329.35-66.25L1329.35-66.25Q1318.77-63.35 1303.56-63.35L1303.56-63.35L1287.27-63.35L1287.27-28.42L1287.27-28.42Q1287.27-21.72 1288.09-17.47L1288.09-17.47L1288.09-17.47Q1288.90-13.21 1291.53-10.86L1291.53-10.86L1291.53-10.86Q1294.15-8.51 1299.13-7.69L1299.13-7.69L1299.13-7.69Q1304.10-6.88 1312.25-6.88L1312.25-6.88L1312.25 0L1248.36 0L1248.36-6.88L1248.36-6.88Q1254.69-7.06 1258.58-7.96L1258.58-7.96L1258.58-7.96Q1262.47-8.87 1264.65-11.04L1264.65-11.04L1264.65-11.04Q1266.82-13.21 1267.54-17.20L1267.54-17.20L1267.54-17.20Q1268.27-21.18 1268.27-27.51L1268.27-27.51L1268.27-111.86L1268.27-111.86Q1268.27-118.19 1267.63-122.08L1267.63-122.08L1267.63-122.08Q1267.00-125.98 1265.10-128.24L1265.10-128.24L1265.10-128.24Q1263.20-130.50 1259.58-131.32L1259.58-131.32L1259.58-131.32Q1255.96-132.13 1250.17-132.49L1250.17-132.49L1250.17-139.37L1307.00-139.37L1307.00-139.37Q1331.98-139.37 1345.64-130.14L1345.64-130.14L1345.64-130.14Q1359.31-120.91 1359.31-104.44ZM1287.27-127.79L1287.27-72.40L1300.12-72.40L1300.12-72.40Q1318.22-72.40 1327.00-79.37L1327.00-79.37L1327.00-79.37Q1335.78-86.34 1335.78-102.27L1335.78-102.27L1335.78-102.27Q1335.78-117.65 1328.81-124.26L1328.81-124.26L1328.81-124.26Q1321.84-130.86 1307.00-130.86L1307.00-130.86L1290.35-130.86L1290.35-130.86Q1287.27-130.86 1287.27-127.79L1287.27-127.79ZM1483.66-104.44L1483.66-104.44L1483.66-104.44Q1483.66-89.96 1474.97-80.36L1474.97-80.36L1474.97-80.36Q1466.28-70.77 1447.28-67.51L1447.28-67.51L1487.28-19.37L1487.28-19.37Q1492.16-13.39 1498.05-10.77L1498.05-10.77L1498.05-10.77Q1503.93-8.14 1512.07-6.88L1512.07-6.88L1512.07 0L1477.14 0L1432.80-56.83L1432.80-56.83Q1430.44-59.91 1428.36-61.72L1428.36-61.72L1428.36-61.72Q1426.28-63.53 1424.02-64.53L1424.02-64.53L1424.02-64.53Q1421.75-65.52 1418.77-65.79L1418.77-65.79L1418.77-65.79Q1415.78-66.06 1411.62-66.06L1411.62-66.06L1411.62-28.42L1411.62-28.42Q1411.62-21.72 1412.43-17.47L1412.43-17.47L1412.43-17.47Q1413.25-13.21 1415.87-10.86L1415.87-10.86L1415.87-10.86Q1418.50-8.51 1423.47-7.69L1423.47-7.69L1423.47-7.69Q1428.45-6.88 1436.60-6.88L1436.60-6.88L1436.60 0L1372.70 0L1372.70-6.88L1372.70-6.88Q1379.04-7.06 1382.93-7.96L1382.93-7.96L1382.93-7.96Q1386.82-8.87 1388.99-11.04L1388.99-11.04L1388.99-11.04Q1391.17-13.21 1391.89-17.20L1391.89-17.20L1391.89-17.20Q1392.61-21.18 1392.61-27.51L1392.61-27.51L1392.61-111.86L1392.61-111.86Q1392.61-118.19 1391.98-122.08L1391.98-122.08L1391.98-122.08Q1391.35-125.98 1389.45-128.24L1389.45-128.24L1389.45-128.24Q1387.55-130.50 1383.93-131.32L1383.93-131.32L1383.93-131.32Q1380.31-132.13 1374.51-132.49L1374.51-132.49L1374.51-139.37L1431.35-139.37L1431.35-139.37Q1456.33-139.37 1469.99-130.14L1469.99-130.14L1469.99-130.14Q1483.66-120.91 1483.66-104.44ZM1411.62-127.79L1411.62-75.11L1424.47-75.11L1424.47-75.11Q1442.57-75.11 1451.35-81.72L1451.35-81.72L1451.35-81.72Q1460.13-88.33 1460.13-103.53L1460.13-103.53L1460.13-103.53Q1460.13-118.19 1453.16-124.53L1453.16-124.53L1453.16-124.53Q1446.19-130.86 1431.35-130.86L1431.35-130.86L1414.70-130.86L1414.70-130.86Q1411.62-130.86 1411.62-127.79L1411.62-127.79ZM1554.25-128.51L1554.25-76.56L1554.25-76.56Q1564.02-76.56 1570.63-77.74L1570.63-77.74L1570.63-77.74Q1577.23-78.92 1581.13-81.45L1581.13-81.45L1581.13-81.45Q1585.02-83.98 1586.74-87.97L1586.74-87.97L1586.74-87.97Q1588.46-91.95 1588.46-97.38L1588.46-97.38L1594.79-97.38L1594.79-47.96L1588.46-47.96L1588.46-47.96Q1588.46-53.39 1586.92-57.38L1586.92-57.38L1586.92-57.38Q1585.38-61.36 1581.49-63.98L1581.49-63.98L1581.49-63.98Q1577.60-66.61 1570.99-67.97L1570.99-67.97L1570.99-67.97Q1564.38-69.32 1554.25-69.32L1554.25-69.32L1554.25-28.42L1554.25-28.42Q1554.25-22.44 1555.69-18.55L1555.69-18.55L1555.69-18.55Q1557.14-14.66 1560.67-12.22L1560.67-12.22L1560.67-12.22Q1564.20-9.77 1569.99-8.78L1569.99-8.78L1569.99-8.78Q1575.79-7.78 1584.29-7.78L1584.29-7.78L1584.29-7.78Q1593.89-7.78 1600.58-9.14L1600.58-9.14L1600.58-9.14Q1607.28-10.50 1611.80-13.76L1611.80-13.76L1611.80-13.76Q1616.33-17.01 1619.04-22.35L1619.04-22.35L1619.04-22.35Q1621.76-27.69 1623.57-35.66L1623.57-35.66L1630.45-35.66L1627.73 0L1515.33 0L1515.33-6.88L1515.33-6.88Q1521.67-7.06 1525.56-7.96L1525.56-7.96L1525.56-7.96Q1529.45-8.87 1531.62-11.04L1531.62-11.04L1531.62-11.04Q1533.79-13.21 1534.52-17.20L1534.52-17.20L1534.52-17.20Q1535.24-21.18 1535.24-27.51L1535.24-27.51L1535.24-111.86L1535.24-111.86Q1535.24-118.19 1534.61-122.08L1534.61-122.08L1534.61-122.08Q1533.97-125.98 1532.07-128.24L1532.07-128.24L1532.07-128.24Q1530.17-130.50 1526.55-131.32L1526.55-131.32L1526.55-131.32Q1522.93-132.13 1517.14-132.49L1517.14-132.49L1517.14-139.37L1621.76-139.37L1623.39-107.51L1617.05-107.51L1617.05-107.51Q1615.97-114.75 1613.52-119.37L1613.52-119.37L1613.52-119.37Q1611.08-123.98 1606.83-126.70L1606.83-126.70L1606.83-126.70Q1602.57-129.41 1596.06-130.50L1596.06-130.50L1596.06-130.50Q1589.54-131.59 1580.31-131.59L1580.31-131.59L1557.32-131.59L1557.32-131.59Q1554.25-131.59 1554.25-128.51L1554.25-128.51Z" fill="#fed136"></path></g></g><style>text {
  font-size: 64px;
  font-family: Arial Black;
  dominant-baseline: central;
  text-anchor: middle;
}</style></svg>